<mxfile host="65bd71144e">
    <diagram id="xsZ8V12-eZUZHVcZwIfH" name="ページ1">
        <mxGraphModel dx="559" dy="666" grid="0" gridSize="10" guides="1" tooltips="1" connect="1" arrows="1" fold="1" page="0" pageScale="1" pageWidth="827" pageHeight="1169" background="#333333" math="0" shadow="0">
            <root>
                <mxCell id="0"/>
                <mxCell id="1" parent="0"/>
                <mxCell id="2" value="user" style="swimlane;fontStyle=0;childLayout=stackLayout;horizontal=1;startSize=26;horizontalStack=0;resizeParent=1;resizeParentMax=0;resizeLast=0;collapsible=1;marginBottom=0;align=center;fontSize=14;labelBackgroundColor=none;fillColor=#60a917;fontColor=#ffffff;strokeColor=#2D7600;" parent="1" vertex="1">
                    <mxGeometry x="160" y="195" width="140" height="146" as="geometry"/>
                </mxCell>
                <mxCell id="23" value="id(PK)" style="text;strokeColor=#82b366;fillColor=#d5e8d4;spacingLeft=4;spacingRight=4;overflow=hidden;rotatable=0;points=[[0,0.5],[1,0.5]];portConstraint=eastwest;fontSize=12;labelBackgroundColor=none;fontColor=#000000;" parent="2" vertex="1">
                    <mxGeometry y="26" width="140" height="30" as="geometry"/>
                </mxCell>
                <mxCell id="3" value="nickname" style="text;strokeColor=#82b366;fillColor=#d5e8d4;spacingLeft=4;spacingRight=4;overflow=hidden;rotatable=0;points=[[0,0.5],[1,0.5]];portConstraint=eastwest;fontSize=12;labelBackgroundColor=none;fontColor=#000000;" parent="2" vertex="1">
                    <mxGeometry y="56" width="140" height="30" as="geometry"/>
                </mxCell>
                <mxCell id="4" value="email" style="text;strokeColor=#82b366;fillColor=#d5e8d4;spacingLeft=4;spacingRight=4;overflow=hidden;rotatable=0;points=[[0,0.5],[1,0.5]];portConstraint=eastwest;fontSize=12;labelBackgroundColor=none;fontColor=#000000;" parent="2" vertex="1">
                    <mxGeometry y="86" width="140" height="30" as="geometry"/>
                </mxCell>
                <mxCell id="5" value="encrypted_password" style="text;strokeColor=#82b366;fillColor=#d5e8d4;spacingLeft=4;spacingRight=4;overflow=hidden;rotatable=0;points=[[0,0.5],[1,0.5]];portConstraint=eastwest;fontSize=12;labelBackgroundColor=none;fontColor=#000000;" parent="2" vertex="1">
                    <mxGeometry y="116" width="140" height="30" as="geometry"/>
                </mxCell>
                <mxCell id="6" value="task" style="swimlane;fontStyle=0;childLayout=stackLayout;horizontal=1;startSize=26;horizontalStack=0;resizeParent=1;resizeParentMax=0;resizeLast=0;collapsible=1;marginBottom=0;align=center;fontSize=14;labelBackgroundColor=none;labelBorderColor=none;swimlaneFillColor=none;fillColor=#60a917;fontColor=#ffffff;strokeColor=#2D7600;" parent="1" vertex="1">
                    <mxGeometry x="480" y="120" width="160" height="296" as="geometry"/>
                </mxCell>
                <mxCell id="24" value="id(PK)" style="text;strokeColor=#82b366;fillColor=#d5e8d4;spacingLeft=4;spacingRight=4;overflow=hidden;rotatable=0;points=[[0,0.5],[1,0.5]];portConstraint=eastwest;fontSize=12;labelBackgroundColor=none;fontColor=#000000;" parent="6" vertex="1">
                    <mxGeometry y="26" width="160" height="30" as="geometry"/>
                </mxCell>
                <mxCell id="7" value="title" style="text;strokeColor=#82b366;fillColor=#d5e8d4;spacingLeft=4;spacingRight=4;overflow=hidden;rotatable=0;points=[[0,0.5],[1,0.5]];portConstraint=eastwest;fontSize=12;labelBackgroundColor=none;fontColor=#000000;" parent="6" vertex="1">
                    <mxGeometry y="56" width="160" height="30" as="geometry"/>
                </mxCell>
                <mxCell id="8" value="description" style="text;strokeColor=#82b366;fillColor=#d5e8d4;spacingLeft=4;spacingRight=4;overflow=hidden;rotatable=0;points=[[0,0.5],[1,0.5]];portConstraint=eastwest;fontSize=12;labelBackgroundColor=none;fontColor=#000000;" parent="6" vertex="1">
                    <mxGeometry y="86" width="160" height="30" as="geometry"/>
                </mxCell>
                <mxCell id="9" value="due_date" style="text;strokeColor=#82b366;fillColor=#d5e8d4;spacingLeft=4;spacingRight=4;overflow=hidden;rotatable=0;points=[[0,0.5],[1,0.5]];portConstraint=eastwest;fontSize=12;labelBackgroundColor=none;fontColor=#000000;" parent="6" vertex="1">
                    <mxGeometry y="116" width="160" height="30" as="geometry"/>
                </mxCell>
                <mxCell id="16" value="completed" style="text;strokeColor=#82b366;fillColor=#d5e8d4;spacingLeft=4;spacingRight=4;overflow=hidden;rotatable=0;points=[[0,0.5],[1,0.5]];portConstraint=eastwest;fontSize=12;labelBackgroundColor=none;fontColor=#000000;" parent="6" vertex="1">
                    <mxGeometry y="146" width="160" height="30" as="geometry"/>
                </mxCell>
                <mxCell id="17" value="user(FK)" style="text;strokeColor=#82b366;fillColor=#d5e8d4;spacingLeft=4;spacingRight=4;overflow=hidden;rotatable=0;points=[[0,0.5],[1,0.5]];portConstraint=eastwest;fontSize=12;labelBackgroundColor=none;fontColor=#000000;" parent="6" vertex="1">
                    <mxGeometry y="176" width="160" height="30" as="geometry"/>
                </mxCell>
                <mxCell id="18" value="start_time" style="text;strokeColor=#82b366;fillColor=#d5e8d4;spacingLeft=4;spacingRight=4;overflow=hidden;rotatable=0;points=[[0,0.5],[1,0.5]];portConstraint=eastwest;fontSize=12;labelBackgroundColor=none;fontColor=#000000;" parent="6" vertex="1">
                    <mxGeometry y="206" width="160" height="30" as="geometry"/>
                </mxCell>
                <mxCell id="19" value="display_color_id" style="text;strokeColor=#82b366;fillColor=#d5e8d4;spacingLeft=4;spacingRight=4;overflow=hidden;rotatable=0;points=[[0,0.5],[1,0.5]];portConstraint=eastwest;fontSize=12;labelBackgroundColor=none;fontColor=#000000;" parent="6" vertex="1">
                    <mxGeometry y="236" width="160" height="30" as="geometry"/>
                </mxCell>
                <mxCell id="20" value="display_type_id" style="text;strokeColor=#82b366;fillColor=#d5e8d4;spacingLeft=4;spacingRight=4;overflow=hidden;rotatable=0;points=[[0,0.5],[1,0.5]];portConstraint=eastwest;fontSize=12;labelBackgroundColor=none;fontColor=#000000;" parent="6" vertex="1">
                    <mxGeometry y="266" width="160" height="30" as="geometry"/>
                </mxCell>
                <mxCell id="27" value="" style="endArrow=ERmany;rounded=0;startArrow=ERone;startFill=0;endFill=0;targetPerimeterSpacing=0;strokeWidth=3;jumpSize=3;endSize=20;startSize=20;labelBackgroundColor=none;fontColor=#FFFFFF;shadow=0;labelBorderColor=none;html=1;strokeColor=#FFFFFF;" parent="1" source="2" target="6" edge="1">
                    <mxGeometry relative="1" as="geometry">
                        <mxPoint x="360" y="200" as="sourcePoint"/>
                        <mxPoint x="480" y="200" as="targetPoint"/>
                    </mxGeometry>
                </mxCell>
            </root>
        </mxGraphModel>
    </diagram>
    <diagram id="kK6krDF_0pwIRvZKV0MU" name="ページ2">
        <mxGraphModel dx="559" dy="666" grid="1" gridSize="10" guides="1" tooltips="1" connect="1" arrows="1" fold="1" page="0" pageScale="1" pageWidth="827" pageHeight="1169" math="0" shadow="0">
            <root>
                <mxCell id="0"/>
                <mxCell id="1" parent="0"/>
                <mxCell id="A2UwJYzVdMkyNP4tHvug-4" style="edgeStyle=none;rounded=0;sketch=0;jumpSize=3;html=1;shadow=0;labelBackgroundColor=none;labelBorderColor=none;strokeColor=#FFFFFF;strokeWidth=2;fontColor=#FFFFFF;startArrow=none;startFill=0;endArrow=openThin;endFill=0;startSize=20;endSize=20;targetPerimeterSpacing=0;" parent="1" source="A2UwJYzVdMkyNP4tHvug-2" target="A2UwJYzVdMkyNP4tHvug-15" edge="1">
                    <mxGeometry relative="1" as="geometry">
                        <mxPoint x="214.48176613356145" y="144.23843010350083" as="targetPoint"/>
                    </mxGeometry>
                </mxCell>
                <mxCell id="A2UwJYzVdMkyNP4tHvug-8" style="edgeStyle=none;rounded=0;sketch=0;jumpSize=3;html=1;shadow=0;labelBackgroundColor=none;labelBorderColor=none;strokeColor=#FFFFFF;strokeWidth=2;fontColor=#FFFFFF;startArrow=none;startFill=0;endArrow=openThin;endFill=0;startSize=20;endSize=20;targetPerimeterSpacing=0;" parent="1" source="A2UwJYzVdMkyNP4tHvug-2" target="A2UwJYzVdMkyNP4tHvug-17" edge="1">
                    <mxGeometry relative="1" as="geometry">
                        <mxPoint x="281" y="200" as="targetPoint"/>
                    </mxGeometry>
                </mxCell>
                <mxCell id="A2UwJYzVdMkyNP4tHvug-2" value="ログインページ" style="ellipse;shape=doubleEllipse;margin=3;whiteSpace=wrap;html=1;align=center;labelBackgroundColor=none;labelBorderColor=none;fillColor=#f5f5f5;fontColor=#333333;strokeColor=#666666;" parent="1" vertex="1">
                    <mxGeometry x="150.5" y="268" width="161" height="64.4" as="geometry"/>
                </mxCell>
                <mxCell id="A2UwJYzVdMkyNP4tHvug-10" style="edgeStyle=none;rounded=0;sketch=0;jumpSize=3;html=1;exitX=0;exitY=0;exitDx=0;exitDy=0;shadow=0;labelBackgroundColor=none;labelBorderColor=none;strokeColor=#FFFFFF;strokeWidth=2;fontColor=#FFFFFF;startArrow=none;startFill=0;endArrow=openThin;endFill=0;startSize=20;endSize=20;targetPerimeterSpacing=0;" parent="1" source="A2UwJYzVdMkyNP4tHvug-17" target="A2UwJYzVdMkyNP4tHvug-15" edge="1">
                    <mxGeometry relative="1" as="geometry">
                        <mxPoint x="295.64466094067257" y="185.85786437626894" as="sourcePoint"/>
                        <mxPoint x="260" y="136" as="targetPoint"/>
                    </mxGeometry>
                </mxCell>
                <mxCell id="A2UwJYzVdMkyNP4tHvug-20" style="edgeStyle=none;rounded=0;sketch=0;jumpSize=3;html=1;shadow=0;labelBackgroundColor=none;labelBorderColor=none;strokeColor=#FFFFFF;strokeWidth=2;fontColor=#333333;startArrow=none;startFill=0;endArrow=openThin;endFill=0;startSize=20;endSize=20;targetPerimeterSpacing=0;" parent="1" source="A2UwJYzVdMkyNP4tHvug-15" target="A2UwJYzVdMkyNP4tHvug-19" edge="1">
                    <mxGeometry relative="1" as="geometry"/>
                </mxCell>
                <mxCell id="A2UwJYzVdMkyNP4tHvug-28" style="edgeStyle=none;rounded=0;sketch=0;jumpSize=3;html=1;entryX=0;entryY=0.5;entryDx=0;entryDy=0;shadow=0;labelBackgroundColor=none;labelBorderColor=none;strokeColor=#FFFFFF;strokeWidth=2;fontColor=#333333;startArrow=openThin;startFill=0;endArrow=openThin;endFill=0;targetPerimeterSpacing=0;endSize=20;startSize=20;" parent="1" source="A2UwJYzVdMkyNP4tHvug-15" target="A2UwJYzVdMkyNP4tHvug-22" edge="1">
                    <mxGeometry relative="1" as="geometry"/>
                </mxCell>
                <mxCell id="A2UwJYzVdMkyNP4tHvug-15" value="メインページ" style="ellipse;shape=doubleEllipse;margin=3;whiteSpace=wrap;html=1;align=center;labelBackgroundColor=none;labelBorderColor=none;strokeColor=#666666;fontColor=#333333;fillColor=#FFFFFF;" parent="1" vertex="1">
                    <mxGeometry x="149" y="95" width="162.5" height="65" as="geometry"/>
                </mxCell>
                <mxCell id="A2UwJYzVdMkyNP4tHvug-17" value="新規ユーザー登録ページ" style="ellipse;shape=doubleEllipse;margin=3;whiteSpace=wrap;html=1;align=center;labelBackgroundColor=none;labelBorderColor=none;strokeColor=#666666;fontColor=#333333;fillColor=#FFFFFF;" parent="1" vertex="1">
                    <mxGeometry x="274" y="188" width="157.5" height="63" as="geometry"/>
                </mxCell>
                <mxCell id="A2UwJYzVdMkyNP4tHvug-21" style="edgeStyle=none;rounded=0;sketch=0;jumpSize=3;html=1;shadow=0;labelBackgroundColor=none;labelBorderColor=none;strokeColor=#FFFFFF;strokeWidth=2;fontColor=#333333;startArrow=none;startFill=0;endArrow=openThin;endFill=0;startSize=20;endSize=20;targetPerimeterSpacing=0;" parent="1" source="A2UwJYzVdMkyNP4tHvug-19" target="A2UwJYzVdMkyNP4tHvug-2" edge="1">
                    <mxGeometry relative="1" as="geometry"/>
                </mxCell>
                <mxCell id="A2UwJYzVdMkyNP4tHvug-19" value="ログアウト" style="ellipse;whiteSpace=wrap;html=1;align=center;dashed=1;labelBackgroundColor=none;labelBorderColor=none;strokeColor=#666666;fontColor=#333333;fillColor=#FFFFFF;" parent="1" vertex="1">
                    <mxGeometry x="101" y="204" width="100" height="40" as="geometry"/>
                </mxCell>
                <mxCell id="A2UwJYzVdMkyNP4tHvug-22" value="ユーザー登録内容編集ページ" style="ellipse;shape=doubleEllipse;margin=3;whiteSpace=wrap;html=1;align=center;labelBackgroundColor=none;labelBorderColor=none;strokeColor=#666666;fontColor=#333333;fillColor=#FFFFFF;" parent="1" vertex="1">
                    <mxGeometry x="388" y="96.38" width="170" height="62.25" as="geometry"/>
                </mxCell>
            </root>
        </mxGraphModel>
    </diagram>
</mxfile>